<!DOCTYPE svg PUBLIC "-//W3C//DTD SVG 1.1//EN" "http://www.w3.org/Graphics/SVG/1.1/DTD/svg11.dtd">
<!-- Uploaded to: SVG Repo, www.svgrepo.com, Transformed by: SVG Repo Mixer Tools -->
<svg fill="#113758" height="100px" width="100px" version="1.1" id="Icons" xmlns="http://www.w3.org/2000/svg" xmlns:xlink="http://www.w3.org/1999/xlink" viewBox="0 0 32 32" xml:space="preserve" stroke="#113758">
<g id="SVGRepo_bgCarrier" stroke-width="0"/>
<g id="SVGRepo_tracerCarrier" stroke-linecap="round" stroke-linejoin="round" stroke="#CCCCCC" stroke-width="0.064"/>
<g id="SVGRepo_iconCarrier"> <g> <path d="M16.9,18.1c-0.2,0.2-0.4,0.5-0.6,0.7c-1.1-1-2.1-2-3.1-3.1c0.3-0.2,0.5-0.4,0.7-0.6c2.2-2.2,2-5.3-0.7-8 c-2.7-2.7-5.8-3-8-0.7c-2.3,2.3-2.7,6.5-0.9,9.3c3,4.5,7.5,9,12,12c1.2,0.8,2.6,1.2,4.1,1.2c1.9,0,3.9-0.7,5.2-2 c2.2-2.2,2-5.3-0.7-8C22.2,16.1,19.2,15.8,16.9,18.1z"/> <path d="M23,3c-3.3,0-6,2.7-6,6s2.7,6,6,6s6-2.7,6-6S26.3,3,23,3z M26,10h-3c-0.6,0-1-0.4-1-1V6c0-0.6,0.4-1,1-1s1,0.4,1,1v2h2 c0.6,0,1,0.4,1,1S26.6,10,26,10z"/> </g> </g>
</svg>